<svg xmlns="http://www.w3.org/2000/svg" xmlns:xlink="http://www.w3.org/1999/xlink" x="0" y="0" width="661.6000366210938" height="301.6000061035156" style="
        width:661.6000366210938px;
        height:301.6000061035156px;
        background: #FFF;
        fill: none;
">
        <svg xmlns="http://www.w3.org/2000/svg"/>
        
        <svg xmlns="http://www.w3.org/2000/svg" class="role-diagram-draw-area"><g class="shapes-region" style="stroke: black; fill: none;"><g class="arrow-line"><path class="connection real" stroke-dasharray="" d="  M43.8,31.6 L72.09,48.57" style="stroke: rgb(0, 0, 0); stroke-width: 1; fill: none; fill-opacity: 1;"/><g stroke="#000" transform="matrix(-0.857526656193652,-0.5144395337815069,0.5144395337815069,-0.857526656193652,73.79998779296875,49.59999084472655)" style="stroke: rgb(0, 0, 0); stroke-width: 1;"><path d=" M10.93,-3.29 Q4.96,-0.45 0,0 Q4.96,0.45 10.93,3.29"/></g></g><g class="arrow-line"><path class="connection real" stroke-dasharray="" d="  M105.8,48.6 L138.05,30.58" style="stroke: rgb(0, 0, 0); stroke-width: 1; fill: none; fill-opacity: 1;"/><g stroke="#000" transform="matrix(-0.8729220772698102,0.48785965913873164,-0.48785965913873164,-0.8729220772698102,139.79998779296878,29.599990844726562)" style="stroke: rgb(0, 0, 0); stroke-width: 1;"><path d=" M10.93,-3.29 Q4.96,-0.45 0,0 Q4.96,0.45 10.93,3.29"/></g></g><g class="arrow-line"><path class="connection real" stroke-dasharray="" d="  M54.8,17.6 L117.8,17.6" style="stroke: rgb(0, 0, 0); stroke-width: 1; fill: none; fill-opacity: 1;"/><g stroke="#000" transform="matrix(-1,1.2246467991473532e-16,-1.2246467991473532e-16,-1,119.79998779296875,17.599990844726562)" style="stroke: rgb(0, 0, 0); stroke-width: 1;"><path d=" M10.93,-3.29 Q4.96,-0.45 0,0 Q4.96,0.45 10.93,3.29"/></g></g><g/></g><g/><g/><g/></svg>
        <svg xmlns="http://www.w3.org/2000/svg" xmlns:xlink="http://www.w3.org/1999/xlink" width="660" height="300" style="width:660px;height:300px;font-family:Asana-Math, Asana;background:#FFF;"><g><g><g><g transform="matrix(1,0,0,1,11.79998779296875,23.79998779296875)"><path transform="matrix(0.017,0,0,-0.017,0,0)" d="M567 55C567 39 552 30 524 28L480 25L480 -3C582 0 582 0 602 0C622 0 622 0 724 -3L724 25L698 28C651 35 650 35 642 80L555 705L509 705L136 112C100 56 82 40 48 32L28 27L28 -3C120 0 120 0 140 0C159 0 161 0 247 -3L247 25L195 28C179 29 164 38 164 47C164 55 171 69 190 102L292 277L538 277L563 89L563 86C563 84 567 69 567 55ZM496 601L533 313L317 313Z" stroke="rgb(0,0,0)" stroke-opacity="1" stroke-width="8" fill="rgb(0,0,0)" fill-opacity="1"></path></g></g><g><g transform="matrix(1,0,0,1,24.57501220703125,23.79998779296875)"><path transform="matrix(0.017,0,0,-0.017,0,0)" d="M146 266C146 526 243 632 301 700L282 726C225 675 60 542 60 266C60 159 85 58 133 -32C168 -99 200 -138 282 -215L301 -194C255 -137 146 -15 146 266Z" stroke="rgb(0,0,0)" stroke-opacity="1" stroke-width="8" fill="rgb(0,0,0)" fill-opacity="1"></path></g></g><g><g transform="matrix(1,0,0,1,30.2249755859375,23.79998779296875)"><path transform="matrix(0.017,0,0,-0.017,0,0)" d="M795 664L798 692L782 692L691 689C676 689 655 689 611 690L548 692L545 664L593 662C617 661 628 653 628 634C628 629 628 626 627 622L556 177C508 119 478 93 427 68C389 48 352 39 314 39C229 39 175 84 175 154C175 171 177 187 182 215L270 692L239 691C212 690 192 689 181 689C171 689 151 690 123 691L91 692L88 664L140 662C166 661 174 656 174 639C174 630 171 602 167 581L103 206C99 185 97 160 97 144C97 43 164 -19 276 -19C320 -19 361 -9 409 15C468 44 500 69 552 129C544 83 538 57 525 2L530 -3L552 -3L614 0C618 0 640 -1 672 -2L704 -3L709 25L649 29C626 31 617 37 617 50C617 65 618 70 623 106L708 613C714 651 721 657 759 661Z" stroke="rgb(0,0,0)" stroke-opacity="1" stroke-width="8" fill="rgb(0,0,0)" fill-opacity="1"></path></g></g><g><g transform="matrix(1,0,0,1,43.4375,23.79998779296875)"><path transform="matrix(0.017,0,0,-0.017,0,0)" d="M51 726L32 700C87 636 187 526 187 266C187 -10 83 -131 32 -194L51 -215C104 -165 273 -23 273 265C273 542 108 675 51 726Z" stroke="rgb(0,0,0)" stroke-opacity="1" stroke-width="8" fill="rgb(0,0,0)" fill-opacity="1"></path></g></g></g></g><g><g><g><g transform="matrix(1,0,0,1,67.79998779296875,62.79998779296875)"><path transform="matrix(0.017,0,0,-0.017,0,0)" d="M567 55C567 39 552 30 524 28L480 25L480 -3C582 0 582 0 602 0C622 0 622 0 724 -3L724 25L698 28C651 35 650 35 642 80L555 705L509 705L136 112C100 56 82 40 48 32L28 27L28 -3C120 0 120 0 140 0C159 0 161 0 247 -3L247 25L195 28C179 29 164 38 164 47C164 55 171 69 190 102L292 277L538 277L563 89L563 86C563 84 567 69 567 55ZM496 601L533 313L317 313Z" stroke="rgb(0,0,0)" stroke-opacity="1" stroke-width="8" fill="rgb(0,0,0)" fill-opacity="1"></path></g></g><g><g transform="matrix(1,0,0,1,80.57501220703125,62.79998779296875)"><path transform="matrix(0.017,0,0,-0.017,0,0)" d="M146 266C146 526 243 632 301 700L282 726C225 675 60 542 60 266C60 159 85 58 133 -32C168 -99 200 -138 282 -215L301 -194C255 -137 146 -15 146 266Z" stroke="rgb(0,0,0)" stroke-opacity="1" stroke-width="8" fill="rgb(0,0,0)" fill-opacity="1"></path></g></g><g><g transform="matrix(1,0,0,1,86.2249755859375,62.79998779296875)"><path transform="matrix(0.017,0,0,-0.017,0,0)" d="M795 664L798 692L782 692L691 689C676 689 655 689 611 690L548 692L545 664L593 662C617 661 628 653 628 634C628 629 628 626 627 622L556 177C508 119 478 93 427 68C389 48 352 39 314 39C229 39 175 84 175 154C175 171 177 187 182 215L270 692L239 691C212 690 192 689 181 689C171 689 151 690 123 691L91 692L88 664L140 662C166 661 174 656 174 639C174 630 171 602 167 581L103 206C99 185 97 160 97 144C97 43 164 -19 276 -19C320 -19 361 -9 409 15C468 44 500 69 552 129C544 83 538 57 525 2L530 -3L552 -3L614 0C618 0 640 -1 672 -2L704 -3L709 25L649 29C626 31 617 37 617 50C617 65 618 70 623 106L708 613C714 651 721 657 759 661ZM881 470C938 543 976 610 1010 696L997 709C961 697 951 694 900 679C894 599 870 533 822 456L837 446Z" stroke="rgb(0,0,0)" stroke-opacity="1" stroke-width="8" fill="rgb(0,0,0)" fill-opacity="1"></path></g></g><g><g transform="matrix(1,0,0,1,104.1500244140625,62.79998779296875)"><path transform="matrix(0.017,0,0,-0.017,0,0)" d="M51 726L32 700C87 636 187 526 187 266C187 -10 83 -131 32 -194L51 -215C104 -165 273 -23 273 265C273 542 108 675 51 726Z" stroke="rgb(0,0,0)" stroke-opacity="1" stroke-width="8" fill="rgb(0,0,0)" fill-opacity="1"></path></g></g></g></g><g><g><g><g transform="matrix(1,0,0,1,121.79998779296875,23.79998779296875)"><path transform="matrix(0.017,0,0,-0.017,0,0)" d="M567 55C567 39 552 30 524 28L480 25L480 -3C582 0 582 0 602 0C622 0 622 0 724 -3L724 25L698 28C651 35 650 35 642 80L555 705L509 705L136 112C100 56 82 40 48 32L28 27L28 -3C120 0 120 0 140 0C159 0 161 0 247 -3L247 25L195 28C179 29 164 38 164 47C164 55 171 69 190 102L292 277L538 277L563 89L563 86C563 84 567 69 567 55ZM496 601L533 313L317 313Z" stroke="rgb(0,0,0)" stroke-opacity="1" stroke-width="8" fill="rgb(0,0,0)" fill-opacity="1"></path></g></g><g><g transform="matrix(1,0,0,1,134.57501220703125,23.79998779296875)"><path transform="matrix(0.017,0,0,-0.017,0,0)" d="M146 266C146 526 243 632 301 700L282 726C225 675 60 542 60 266C60 159 85 58 133 -32C168 -99 200 -138 282 -215L301 -194C255 -137 146 -15 146 266Z" stroke="rgb(0,0,0)" stroke-opacity="1" stroke-width="8" fill="rgb(0,0,0)" fill-opacity="1"></path></g></g><g><g transform="matrix(1,0,0,1,140.2249755859375,23.79998779296875)"><path transform="matrix(0.017,0,0,-0.017,0,0)" d="M795 664L798 692L782 692L691 689C676 689 655 689 611 690L548 692L545 664L593 662C617 661 628 653 628 634C628 629 628 626 627 622L556 177C508 119 478 93 427 68C389 48 352 39 314 39C229 39 175 84 175 154C175 171 177 187 182 215L270 692L239 691C212 690 192 689 181 689C171 689 151 690 123 691L91 692L88 664L140 662C166 661 174 656 174 639C174 630 171 602 167 581L103 206C99 185 97 160 97 144C97 43 164 -19 276 -19C320 -19 361 -9 409 15C468 44 500 69 552 129C544 83 538 57 525 2L530 -3L552 -3L614 0C618 0 640 -1 672 -2L704 -3L709 25L649 29C626 31 617 37 617 50C617 65 618 70 623 106L708 613C714 651 721 657 759 661ZM881 470C938 543 976 610 1010 696L997 709C961 697 951 694 900 679C894 599 870 533 822 456L837 446ZM1158 470C1215 543 1253 610 1287 696L1274 709C1238 697 1228 694 1177 679C1171 599 1147 533 1099 456L1114 446Z" stroke="rgb(0,0,0)" stroke-opacity="1" stroke-width="8" fill="rgb(0,0,0)" fill-opacity="1"></path></g></g><g><g transform="matrix(1,0,0,1,162.86248779296875,23.79998779296875)"><path transform="matrix(0.017,0,0,-0.017,0,0)" d="M51 726L32 700C87 636 187 526 187 266C187 -10 83 -131 32 -194L51 -215C104 -165 273 -23 273 265C273 542 108 675 51 726Z" stroke="rgb(0,0,0)" stroke-opacity="1" stroke-width="8" fill="rgb(0,0,0)" fill-opacity="1"></path></g></g></g></g></svg>
</svg>
